<svg width="155" height="117" viewBox="0 0 155 117" fill="none" xmlns="http://www.w3.org/2000/svg">
<g filter="url(#filter0_d)">
<path fill-rule="evenodd" clip-rule="evenodd" d="M58.4584 4.87653C59.5594 1.94636 63.0516 0.736899 65.729 2.35842L151 54H40L58.4584 4.87653Z" fill="#5DD8A1"/>
</g>
<path opacity="0.400702" fill-rule="evenodd" clip-rule="evenodd" d="M58.4584 4.87653C59.5594 1.94636 63.0516 0.736899 65.729 2.35842L151 54H40L58.4584 4.87653Z" fill="url(#paint0_linear)"/>
<g filter="url(#filter1_d)">
<path fill-rule="evenodd" clip-rule="evenodd" d="M89.5822 109.547L4 55L114 56.8671L93.8213 108.167C93.2369 109.653 91.5599 110.383 90.0755 109.798C89.9034 109.73 89.7382 109.646 89.5822 109.547Z" fill="#FF5C40"/>
</g>
<path opacity="0.393342" fill-rule="evenodd" clip-rule="evenodd" d="M95.2187 104.739C94.0662 107.662 90.536 108.81 87.885 107.124L4.4699 54.0987L114.454 55.9639L95.2187 104.739Z" fill="url(#paint1_linear)"/>
<g filter="url(#filter2_d)">
<path fill-rule="evenodd" clip-rule="evenodd" d="M29.8221 87.3325C28.6712 90.5862 31.0846 94 34.5359 94H135.081C137.211 94 139.108 92.6501 139.805 90.6371L150.201 60.6371C151.326 57.3889 148.914 54 145.476 54H45.1482C43.0296 54 41.1409 55.3352 40.4344 57.3325L29.8221 87.3325Z" fill="#5DD8A1"/>
</g>
<g filter="url(#filter3_d)">
<path fill-rule="evenodd" clip-rule="evenodd" d="M4 55L110.68 51.686C112.65 51.6248 114.4 50.4123 115.149 48.5896L126.926 19.9429C128.295 16.6118 125.8 12.9692 122.199 13.0428L21.8905 15.0932C19.8249 15.1355 17.9979 16.4439 17.2929 18.3859L4 55Z" fill="#FF5C40"/>
</g>
<path fill-rule="evenodd" clip-rule="evenodd" d="M50.2868 80.3983C50.2139 79.0274 50.1183 77.9091 50 77.0433C51.7843 77.846 53.4047 78.2473 54.8612 78.2473C55.4438 78.2473 55.9878 78.1594 56.493 77.9835C56.9983 77.8076 57.3715 77.5596 57.6127 77.2394C57.854 76.9193 57.9746 76.5608 57.9746 76.164C57.9746 75.8573 57.92 75.5823 57.8107 75.3387C57.6469 75.005 57.3738 74.6578 56.9914 74.2971C56.4634 73.801 55.5212 72.9849 54.1648 71.8485C53.5185 71.2983 53.0724 70.906 52.8266 70.6715C52.2804 70.1575 51.8617 69.6953 51.5703 69.2849C51.279 68.8745 51.0697 68.4665 50.9422 68.0606C50.8148 67.6548 50.751 67.2219 50.751 66.7619C50.751 65.9141 50.99 65.1182 51.4679 64.3742C51.9459 63.6301 52.6605 63.0484 53.6118 62.6291C54.5631 62.2097 55.7625 62 57.2099 62C58.5117 62 59.9773 62.1578 61.6069 62.4735C61.6524 63.4114 61.7434 64.4847 61.88 65.6932C60.4598 65.1521 59.1489 64.8815 57.9473 64.8815C57.0551 64.8815 56.3246 65.0822 55.7556 65.4835C55.1867 65.8848 54.9022 66.3515 54.9022 66.8837C54.9022 67.028 54.9204 67.179 54.9568 67.3369C54.9932 67.4947 55.0478 67.648 55.1207 67.7968C55.1935 67.9456 55.3232 68.1395 55.5098 68.3785C55.6965 68.6175 55.9696 68.8971 56.3292 69.2173C56.6887 69.5374 56.996 69.7967 57.2509 69.9951L59.1489 71.5103C59.5768 71.862 59.9591 72.2047 60.296 72.5384C60.6328 72.8721 60.9218 73.1923 61.1631 73.4989C61.4043 73.8056 61.5932 74.0987 61.7298 74.3782C61.8663 74.6578 61.9687 74.9442 62.037 75.2373C62.1053 75.5304 62.1394 75.8393 62.1394 76.164C62.1394 76.9215 61.9619 77.6363 61.6069 78.3082C61.2518 78.9801 60.742 79.5325 60.0775 79.9654C59.4129 80.3983 58.6847 80.6981 57.8927 80.865C57.1007 81.0318 56.2632 81.1153 55.3801 81.1153C54.7975 81.1153 54.1193 81.0657 53.3455 80.9664C52.5717 80.8672 51.5521 80.6779 50.2868 80.3983ZM65.9082 70.0492C66.0357 69.3999 66.1153 68.9444 66.1472 68.6829C66.1791 68.4214 66.2359 68.0245 66.3179 67.4924C67.556 67.2038 68.6483 67.0009 69.5951 66.8837C70.5419 66.7664 71.4568 66.7078 72.3398 66.7078C73.3412 66.7078 74.2606 66.8228 75.0981 67.0528C75.9356 67.2827 76.5911 67.6502 77.0645 68.1553C77.5378 68.6604 77.7745 69.3864 77.7745 70.3333C77.7745 70.8474 77.7017 72.1574 77.556 74.2633C77.4104 76.3691 77.3239 78.5449 77.2966 80.7906C76.6047 80.7725 75.9675 80.7635 75.3849 80.7635C74.8296 80.7635 74.1787 80.7725 73.4322 80.7906C73.5505 79.6993 73.6461 78.4367 73.719 77.0027L73.8965 73.6342C73.5505 73.8597 73.2865 74.0175 73.1045 74.1077C72.9224 74.1979 72.7176 74.2813 72.49 74.358C72.2624 74.4346 71.8619 74.5519 71.2883 74.7097C70.7148 74.8675 70.2551 75.005 69.9092 75.1223C69.5632 75.2395 69.2515 75.3726 68.9738 75.5214C68.6961 75.6702 68.4617 75.837 68.2706 76.0219C68.0794 76.2068 67.9406 76.4007 67.8541 76.6036C67.7676 76.8065 67.7244 77.0253 67.7244 77.2597C67.7244 77.6385 67.8359 77.9655 68.0589 78.2405C68.2819 78.5156 68.5619 78.7073 68.8987 78.8155C69.2355 78.9237 69.6315 78.9778 70.0867 78.9778C70.378 78.9778 70.6852 78.9553 71.0084 78.9102C71.3316 78.8651 71.7663 78.7523 72.3125 78.572C72.1213 79.086 71.8983 79.8526 71.6434 80.8718C70.997 80.98 70.4827 81.0476 70.1003 81.0747C69.718 81.1017 69.363 81.1153 69.0352 81.1153C67.8882 81.1153 66.946 80.9619 66.2086 80.6553C65.4713 80.3487 64.9273 79.8617 64.5768 79.1943C64.2264 78.5269 64.0511 77.855 64.0511 77.1786C64.0511 76.7908 64.1194 76.4075 64.256 76.0287C64.3925 75.6499 64.5928 75.3027 64.8568 74.987C65.1208 74.6714 65.4622 74.367 65.8809 74.0739C66.2997 73.7808 66.905 73.4967 67.697 73.2216C68.489 72.9465 69.5359 72.6692 70.8377 72.3896C71.1837 72.3175 71.5432 72.2295 71.9165 72.1258C72.2897 72.0221 72.5879 71.9206 72.8109 71.8214C73.0339 71.7222 73.2274 71.5937 73.3912 71.4359C73.5551 71.278 73.6757 71.1135 73.7531 70.9421C73.8305 70.7707 73.8692 70.5949 73.8692 70.4145C73.8692 70.0628 73.7531 69.7652 73.521 69.5216C73.2888 69.2781 72.9884 69.109 72.6197 69.0143C72.251 68.9196 71.8437 68.8723 71.3976 68.8723C69.7408 68.8723 67.911 69.2646 65.9082 70.0492ZM80.7377 80.7906C80.8651 79.2574 80.9994 76.9666 81.1405 73.9183C81.2816 70.8699 81.3522 68.5747 81.3522 67.0325C82.126 67.0505 82.7541 67.0595 83.2366 67.0595C83.7919 67.0595 84.3927 67.0505 85.0391 67.0325L84.9298 69.2105C85.2211 68.7866 85.4874 68.4416 85.7286 68.1756C85.9699 67.9095 86.2817 67.6638 86.664 67.4383C87.0464 67.2128 87.4947 67.0347 88.009 66.904C88.5234 66.7732 89.0537 66.7078 89.5999 66.7078C90.0095 66.7078 90.4055 66.7461 90.7879 66.8228C91.1702 66.8994 91.5184 67.0077 91.8325 67.1475C92.1466 67.2872 92.4151 67.4473 92.6381 67.6277C92.8612 67.8081 93.0501 68.0087 93.2048 68.2297C93.3596 68.4507 93.528 68.7776 93.7101 69.2105C93.9103 68.8948 94.0947 68.631 94.2631 68.4191C94.4315 68.2072 94.6568 67.9885 94.939 67.763C95.2212 67.5375 95.5353 67.3481 95.8812 67.1948C96.2272 67.0415 96.6163 66.922 97.0487 66.8363C97.4812 66.7506 97.9295 66.7078 98.3938 66.7078C99.1858 66.7078 99.9323 66.8363 100.633 67.0933C101.334 67.3504 101.885 67.7562 102.285 68.3109C102.686 68.8655 102.886 69.5532 102.886 70.3739C102.886 70.8068 102.854 71.4426 102.791 72.2814C102.727 73.1201 102.65 74.4887 102.559 76.3872C102.468 78.2856 102.417 79.7534 102.408 80.7906C101.744 80.7725 101.157 80.7635 100.647 80.7635C100.046 80.7635 99.3405 80.7725 98.5303 80.7906C98.6123 79.6272 98.6896 78.4096 98.7625 77.138L98.9263 74.04C98.9718 73.2554 98.9946 72.5925 98.9946 72.0514C98.9946 71.4111 98.8922 70.9263 98.6874 70.5971C98.4825 70.2679 98.2231 70.0335 97.909 69.8937C97.5949 69.7539 97.2422 69.684 96.8507 69.684C96.4411 69.684 96.0701 69.7606 95.7379 69.914C95.4056 70.0673 95.0961 70.3153 94.8093 70.658C94.5225 71.0007 94.3018 71.3998 94.147 71.8552C93.9923 72.3107 93.8785 72.951 93.8057 73.7762C93.7328 74.6015 93.6737 75.686 93.6281 77.0298L93.5325 80.7906C92.777 80.7725 92.1488 80.7635 91.6481 80.7635C91.1474 80.7635 90.4784 80.7725 89.6408 80.7906C89.7046 80.0961 89.7956 78.6757 89.9139 76.5292C90.0323 74.3827 90.0915 72.9352 90.0915 72.1867C90.0915 71.7899 90.0596 71.4539 89.9959 71.1788C89.9321 70.9038 89.8024 70.6422 89.6067 70.3942C89.411 70.1462 89.1811 69.9636 88.9171 69.8463C88.6531 69.7291 88.3482 69.6705 88.0022 69.6705C87.365 69.6705 86.8051 69.8779 86.3226 70.2927C85.8402 70.7076 85.4874 71.2623 85.2644 71.9567C85.0413 72.6512 84.882 74.0017 84.7864 76.0084C84.6909 78.0151 84.6431 79.6091 84.6431 80.7906C83.8055 80.7725 83.1729 80.7635 82.745 80.7635C82.2625 80.7635 81.5934 80.7725 80.7377 80.7906ZM105.358 87C105.585 84.4838 105.79 81.2235 105.972 77.2192C106.154 73.2148 106.245 69.9636 106.245 67.4654C107.975 67.1587 109.313 66.9558 110.26 66.8566C111.207 66.7574 112.149 66.7078 113.087 66.7078C114.316 66.7078 115.442 66.8521 116.466 67.1407C117.49 67.4293 118.31 67.9118 118.924 68.5882C119.539 69.2646 119.994 70.0492 120.29 70.9421C120.586 71.835 120.734 72.7684 120.734 73.7424C120.734 74.7255 120.592 75.6724 120.31 76.5833C120.028 77.4942 119.596 78.3127 119.013 79.0387C118.43 79.7647 117.754 80.2923 116.985 80.6215C116.216 80.9507 115.376 81.1153 114.466 81.1153C113.929 81.1153 113.398 81.0521 112.875 80.9259C112.352 80.7996 111.892 80.6328 111.496 80.4253C111.1 80.2179 110.774 80.0082 110.52 79.7963C110.265 79.5843 109.941 79.2664 109.55 78.8425L109.345 84.7273L109.332 85.6472C109.322 85.7644 109.318 86.2154 109.318 87C108.48 86.991 107.834 86.9865 107.379 86.9865L105.358 87ZM110.014 69.9545C109.951 70.4416 109.905 70.8609 109.878 71.2127L109.796 72.7143C109.759 73.3636 109.741 73.8416 109.741 74.1483C109.741 74.6984 109.798 75.226 109.912 75.7311C110.026 76.2361 110.253 76.7006 110.595 77.1245C110.936 77.5483 111.341 77.8708 111.81 78.0917C112.279 78.3127 112.764 78.4232 113.264 78.4232C113.956 78.4232 114.586 78.227 115.155 77.8347C115.724 77.4424 116.164 76.8674 116.473 76.1098C116.783 75.3523 116.937 74.5451 116.937 73.6883C116.937 72.7413 116.767 71.9409 116.425 71.2871C116.084 70.6332 115.627 70.1575 115.053 69.8598C114.48 69.5622 113.829 69.4134 113.1 69.4134C112.154 69.4134 111.125 69.5938 110.014 69.9545ZM124.134 70.0492C124.261 69.3999 124.341 68.9444 124.373 68.6829C124.405 68.4214 124.461 68.0245 124.543 67.4924C125.781 67.2038 126.874 67.0009 127.821 66.8837C128.767 66.7664 129.682 66.7078 130.565 66.7078C131.567 66.7078 132.486 66.8228 133.324 67.0528C134.161 67.2827 134.817 67.6502 135.29 68.1553C135.763 68.6604 136 69.3864 136 70.3333C136 70.8474 135.927 72.1574 135.782 74.2633C135.636 76.3691 135.549 78.5449 135.522 80.7906C134.83 80.7725 134.193 80.7635 133.61 80.7635C133.055 80.7635 132.404 80.7725 131.658 80.7906C131.776 79.6993 131.872 78.4367 131.944 77.0027L132.122 73.6342C131.776 73.8597 131.512 74.0175 131.33 74.1077C131.148 74.1979 130.943 74.2813 130.715 74.358C130.488 74.4346 130.087 74.5519 129.514 74.7097C128.94 74.8675 128.481 75.005 128.135 75.1223C127.789 75.2395 127.477 75.3726 127.199 75.5214C126.922 75.6702 126.687 75.837 126.496 76.0219C126.305 76.2068 126.166 76.4007 126.08 76.6036C125.993 76.8065 125.95 77.0253 125.95 77.2597C125.95 77.6385 126.061 77.9655 126.284 78.2405C126.507 78.5156 126.787 78.7073 127.124 78.8155C127.461 78.9237 127.857 78.9778 128.312 78.9778C128.603 78.9778 128.911 78.9553 129.234 78.9102C129.557 78.8651 129.992 78.7523 130.538 78.572C130.347 79.086 130.124 79.8526 129.869 80.8718C129.223 80.98 128.708 81.0476 128.326 81.0747C127.943 81.1017 127.588 81.1153 127.261 81.1153C126.114 81.1153 125.171 80.9619 124.434 80.6553C123.697 80.3487 123.153 79.8617 122.802 79.1943C122.452 78.5269 122.277 77.855 122.277 77.1786C122.277 76.7908 122.345 76.4075 122.481 76.0287C122.618 75.6499 122.818 75.3027 123.082 74.987C123.346 74.6714 123.688 74.367 124.106 74.0739C124.525 73.7808 125.131 73.4967 125.923 73.2216C126.715 72.9465 127.761 72.6692 129.063 72.3896C129.409 72.3175 129.769 72.2295 130.142 72.1258C130.515 72.0221 130.813 71.9206 131.036 71.8214C131.259 71.7222 131.453 71.5937 131.617 71.4359C131.781 71.278 131.901 71.1135 131.979 70.9421C132.056 70.7707 132.095 70.5949 132.095 70.4145C132.095 70.0628 131.979 69.7652 131.746 69.5216C131.514 69.2781 131.214 69.109 130.845 69.0143C130.477 68.9196 130.069 68.8723 129.623 68.8723C127.966 68.8723 126.136 69.2646 124.134 70.0492Z" fill="white"/>
<path fill-rule="evenodd" clip-rule="evenodd" d="M29.6625 38.0942C29.5138 38.8539 29.3853 39.6266 29.2772 40.4123C28.5064 40.5422 27.7999 40.6331 27.1576 40.6851C26.5153 40.737 25.9643 40.763 25.5046 40.763C24.4904 40.763 23.522 40.6266 22.5991 40.3539C21.6762 40.0812 20.8446 39.651 20.1043 39.0633C19.364 38.4756 18.8282 37.763 18.4969 36.9253C18.1656 36.0877 18 35.1721 18 34.1786C18 33.1006 18.1994 32.1039 18.5983 31.1883C18.9972 30.2727 19.5702 29.5 20.3173 28.8701C21.0644 28.2403 21.9484 27.7711 22.9693 27.4627C23.9902 27.1542 25.055 27 26.1638 27C27.259 27 28.4557 27.1201 29.7538 27.3604C29.7741 27.9383 29.7944 28.3474 29.8147 28.5877L29.8856 29.6299C29.1217 29.4351 28.4861 29.3019 27.9791 29.2305C27.472 29.1591 26.9886 29.1234 26.5289 29.1234C25.8054 29.1234 25.1108 29.2289 24.4448 29.4399C23.7789 29.651 23.1907 29.987 22.6802 30.4481C22.1698 30.9091 21.7776 31.4659 21.5038 32.1185C21.23 32.7711 21.0931 33.4513 21.0931 34.1591C21.0931 35.0033 21.2621 35.7597 21.6002 36.4286C21.9382 37.0974 22.4808 37.6396 23.2279 38.0552C23.9749 38.4708 24.8995 38.6786 26.0015 38.6786C27.0224 38.6786 28.2427 38.4838 29.6625 38.0942ZM32.4108 32.7955C32.5055 32.3279 32.5646 32 32.5883 31.8117C32.612 31.6234 32.6542 31.3377 32.7151 30.9545C33.6346 30.7468 34.4459 30.6006 35.149 30.5162C35.8521 30.4318 36.5316 30.3896 37.1874 30.3896C37.9311 30.3896 38.6139 30.4724 39.2359 30.638C39.858 30.8036 40.3447 31.0682 40.6963 31.4318C41.0479 31.7955 41.2236 32.3182 41.2236 33C41.2236 33.3701 41.1696 34.3133 41.0614 35.8295C40.9532 37.3458 40.889 38.9123 40.8687 40.5292C40.3549 40.5162 39.8816 40.5097 39.4489 40.5097C39.0365 40.5097 38.5531 40.5162 37.9987 40.5292C38.0866 39.7435 38.1576 38.8344 38.2117 37.8019L38.3435 35.3766C38.0866 35.539 37.8905 35.6526 37.7553 35.7175C37.6201 35.7825 37.468 35.8425 37.299 35.8977C37.1299 35.9529 36.8325 36.0373 36.4065 36.151C35.9806 36.2646 35.6392 36.3636 35.3822 36.4481C35.1253 36.5325 34.8938 36.6282 34.6876 36.7354C34.4814 36.8425 34.3073 36.9627 34.1653 37.0958C34.0233 37.2289 33.9202 37.3685 33.856 37.5146C33.7917 37.6607 33.7596 37.8182 33.7596 37.987C33.7596 38.2597 33.8424 38.4951 34.0081 38.6932C34.1737 38.8912 34.3816 39.0292 34.6318 39.1071C34.8819 39.1851 35.176 39.224 35.5141 39.224C35.7304 39.224 35.9586 39.2078 36.1986 39.1753C36.4386 39.1429 36.7615 39.0617 37.1671 38.9318C37.0251 39.3019 36.8595 39.8539 36.6702 40.5877C36.1902 40.6656 35.8082 40.7143 35.5242 40.7338C35.2403 40.7532 34.9766 40.763 34.7332 40.763C33.8813 40.763 33.1816 40.6526 32.6339 40.4318C32.0863 40.211 31.6823 39.8604 31.4221 39.3799C31.1618 38.8993 31.0316 38.4156 31.0316 37.9286C31.0316 37.6493 31.0823 37.3734 31.1837 37.1006C31.2851 36.8279 31.4339 36.5779 31.6299 36.3506C31.826 36.1234 32.0795 35.9042 32.3905 35.6932C32.7016 35.4821 33.1511 35.2776 33.7393 35.0795C34.3275 34.8815 35.105 34.6818 36.0719 34.4805C36.3288 34.4286 36.5958 34.3653 36.873 34.2906C37.1502 34.2159 37.3716 34.1429 37.5373 34.0714C37.7029 34 37.8466 33.9075 37.9683 33.7938C38.09 33.6802 38.1796 33.5617 38.237 33.4383C38.2945 33.3149 38.3232 33.1883 38.3232 33.0584C38.3232 32.8052 38.237 32.5909 38.0646 32.4156C37.8922 32.2403 37.6691 32.1185 37.3953 32.0503C37.1215 31.9821 36.8189 31.9481 36.4876 31.9481C35.2572 31.9481 33.8982 32.2305 32.4108 32.7955ZM43.1505 45C43.3195 43.1883 43.4716 40.8409 43.6069 37.9578C43.7421 35.0747 43.8097 32.7338 43.8097 30.9351C45.0943 30.7143 46.0881 30.5682 46.7912 30.4968C47.4944 30.4253 48.1941 30.3896 48.8905 30.3896C49.8032 30.3896 50.6399 30.4935 51.4005 30.7013C52.1611 30.9091 52.7696 31.2565 53.2259 31.7435C53.6823 32.2305 54.0203 32.7955 54.24 33.4383C54.4598 34.0812 54.5696 34.7532 54.5696 35.4545C54.5696 36.1623 54.4648 36.8442 54.2553 37.5C54.0457 38.1558 53.7245 38.7451 53.2918 39.2679C52.8591 39.7906 52.3571 40.1705 51.7858 40.4075C51.2145 40.6445 50.5909 40.763 49.9148 40.763C49.5159 40.763 49.1221 40.7175 48.7333 40.6266C48.3446 40.5357 48.0031 40.4156 47.709 40.2662C47.4149 40.1169 47.1732 39.9659 46.9839 39.8133C46.7946 39.6607 46.5546 39.4318 46.2639 39.1266L46.1118 43.3636L46.1016 44.026C46.0949 44.1104 46.0915 44.4351 46.0915 45C45.4695 44.9935 44.9895 44.9903 44.6514 44.9903L43.1505 45ZM46.6087 32.7273C46.5614 33.0779 46.5276 33.3799 46.5073 33.6331L46.4464 34.7143C46.4194 35.1818 46.4059 35.526 46.4059 35.7468C46.4059 36.1429 46.4481 36.5227 46.5326 36.8864C46.6171 37.25 46.7862 37.5844 47.0397 37.8896C47.2932 38.1948 47.5941 38.4269 47.9423 38.586C48.2905 38.7451 48.6505 38.8247 49.0223 38.8247C49.5362 38.8247 50.0043 38.6834 50.4269 38.401C50.8495 38.1185 51.1757 37.7045 51.4055 37.1591C51.6354 36.6136 51.7504 36.0325 51.7504 35.4156C51.7504 34.7338 51.6236 34.1575 51.37 33.6867C51.1165 33.2159 50.7768 32.8734 50.3508 32.6591C49.9249 32.4448 49.4415 32.3377 48.9006 32.3377C48.1975 32.3377 47.4335 32.4675 46.6087 32.7273ZM56.8616 28.9286C56.8886 28.2597 56.9021 27.7468 56.9021 27.3896V27.0779C57.5174 27.0909 58.0177 27.0974 58.4031 27.0974C58.9304 27.0974 59.4206 27.0909 59.8736 27.0779C59.8533 27.2403 59.8398 27.4253 59.833 27.6331L59.7823 28.9286C59.2685 28.9156 58.7952 28.9091 58.3625 28.9091C57.9298 28.9091 57.4295 28.9156 56.8616 28.9286ZM56.3139 40.5292C56.4154 39.5552 56.4864 38.7403 56.5269 38.0844C56.5945 37.0454 56.6537 35.8474 56.7044 34.4903C56.7551 33.1331 56.7906 31.8442 56.8109 30.6234C57.4734 30.6364 57.9704 30.6429 58.3017 30.6429C58.6059 30.6429 59.0994 30.6364 59.7823 30.6234C59.6876 31.7533 59.6116 32.8312 59.5541 33.8571C59.4966 34.8831 59.4544 36.0584 59.4273 37.3831C59.4003 38.7078 59.3868 39.7565 59.3868 40.5292C58.7715 40.5162 58.278 40.5097 57.9061 40.5097C57.5546 40.5097 57.0238 40.5162 56.3139 40.5292ZM68.1793 38.4935C68.0982 38.8507 67.9697 39.513 67.7939 40.4805C67.226 40.6039 66.7798 40.6818 66.4553 40.7143C66.1308 40.7468 65.8265 40.763 65.5426 40.763C65.0423 40.763 64.5943 40.7175 64.1988 40.6266C63.8033 40.5357 63.4771 40.375 63.2202 40.1445C62.9633 39.914 62.7892 39.6445 62.6979 39.336C62.6066 39.0276 62.561 38.7078 62.561 38.3766C62.561 38.2922 62.5644 38.1786 62.5712 38.0357C62.5779 37.8929 62.605 37.4318 62.6523 36.6526L62.8855 32.6006H61.4252C61.459 32.211 61.4894 31.5844 61.5165 30.7208H63.0478C63.0884 30.3442 63.1289 29.7045 63.1695 28.8019L64.3662 28.5779C64.6163 28.5325 65.0997 28.4253 65.8164 28.2565C65.7691 29.1331 65.742 29.9545 65.7352 30.7208H68.3111C68.2638 31.5974 68.2402 32.224 68.2402 32.6006H65.6541C65.5121 35.2435 65.4412 36.7727 65.4412 37.1883C65.4412 37.5909 65.4868 37.9026 65.5781 38.1234C65.6693 38.3442 65.8164 38.5032 66.0192 38.6006C66.222 38.6981 66.4384 38.7468 66.6683 38.7468C66.8373 38.7468 67.0147 38.7338 67.2007 38.7078C67.3866 38.6818 67.7128 38.6104 68.1793 38.4935ZM70.3496 32.7955C70.4442 32.3279 70.5034 32 70.527 31.8117C70.5507 31.6234 70.5929 31.3377 70.6538 30.9545C71.5733 30.7468 72.3846 30.6006 73.0877 30.5162C73.7908 30.4318 74.4703 30.3896 75.1261 30.3896C75.8698 30.3896 76.5527 30.4724 77.1747 30.638C77.7967 30.8036 78.2835 31.0682 78.635 31.4318C78.9866 31.7955 79.1624 32.3182 79.1624 33C79.1624 33.3701 79.1083 34.3133 79.0001 35.8295C78.8919 37.3458 78.8277 38.9123 78.8074 40.5292C78.2936 40.5162 77.8203 40.5097 77.3876 40.5097C76.9752 40.5097 76.4918 40.5162 75.9374 40.5292C76.0253 39.7435 76.0963 38.8344 76.1504 37.8019L76.2822 35.3766C76.0253 35.539 75.8293 35.6526 75.694 35.7175C75.5588 35.7825 75.4067 35.8425 75.2377 35.8977C75.0687 35.9529 74.7712 36.0373 74.3452 36.151C73.9193 36.2646 73.5779 36.3636 73.321 36.4481C73.064 36.5325 72.8325 36.6282 72.6263 36.7354C72.4201 36.8425 72.246 36.9627 72.104 37.0958C71.962 37.2289 71.8589 37.3685 71.7947 37.5146C71.7305 37.6607 71.6984 37.8182 71.6984 37.987C71.6984 38.2597 71.7812 38.4951 71.9468 38.6932C72.1125 38.8912 72.3204 39.0292 72.5705 39.1071C72.8207 39.1851 73.1148 39.224 73.4528 39.224C73.6692 39.224 73.8973 39.2078 74.1373 39.1753C74.3774 39.1429 74.7002 39.0617 75.1058 38.9318C74.9639 39.3019 74.7982 39.8539 74.6089 40.5877C74.1289 40.6656 73.7469 40.7143 73.4629 40.7338C73.179 40.7532 72.9153 40.763 72.6719 40.763C71.82 40.763 71.1203 40.6526 70.5727 40.4318C70.025 40.211 69.6211 39.8604 69.3608 39.3799C69.1005 38.8993 68.9703 38.4156 68.9703 37.9286C68.9703 37.6493 69.021 37.3734 69.1225 37.1006C69.2239 36.8279 69.3726 36.5779 69.5687 36.3506C69.7647 36.1234 70.0183 35.9042 70.3293 35.6932C70.6403 35.4821 71.0899 35.2776 71.6781 35.0795C72.2663 34.8815 73.0438 34.6818 74.0106 34.4805C74.2675 34.4286 74.5345 34.3653 74.8117 34.2906C75.0889 34.2159 75.3104 34.1429 75.476 34.0714C75.6416 34 75.7853 33.9075 75.907 33.7938C76.0287 33.6802 76.1183 33.5617 76.1758 33.4383C76.2332 33.3149 76.262 33.1883 76.262 33.0584C76.262 32.8052 76.1758 32.5909 76.0033 32.4156C75.8309 32.2403 75.6078 32.1185 75.334 32.0503C75.0602 31.9821 74.7577 31.9481 74.4264 31.9481C73.1959 31.9481 71.837 32.2305 70.3496 32.7955ZM81.3529 40.5292C81.4543 39.4318 81.5777 37.4594 81.7231 34.612C81.8684 31.7646 81.958 29.3052 81.9918 27.2338C82.6949 27.2468 83.1952 27.2532 83.4927 27.2532C83.8916 27.2532 84.3784 27.2468 84.9531 27.2338L84.7097 30.789L84.3547 38.7175L84.3142 40.5292C83.7598 40.5162 83.2899 40.5097 82.9045 40.5097C82.7761 40.5097 82.2589 40.5162 81.3529 40.5292ZM87.3971 28.9286C87.4242 28.2597 87.4377 27.7468 87.4377 27.3896V27.0779C88.0529 27.0909 88.5532 27.0974 88.9386 27.0974C89.466 27.0974 89.9561 27.0909 90.4091 27.0779C90.3888 27.2403 90.3753 27.4253 90.3685 27.6331L90.3178 28.9286C89.804 28.9156 89.3307 28.9091 88.898 28.9091C88.4653 28.9091 87.965 28.9156 87.3971 28.9286ZM86.8495 40.5292C86.9509 39.5552 87.0219 38.7403 87.0625 38.0844C87.1301 37.0454 87.1892 35.8474 87.2399 34.4903C87.2906 33.1331 87.3261 31.8442 87.3464 30.6234C88.009 30.6364 88.5059 30.6429 88.8372 30.6429C89.1414 30.6429 89.635 30.6364 90.3178 30.6234C90.2232 31.7533 90.1471 32.8312 90.0897 33.8571C90.0322 34.8831 89.9899 36.0584 89.9629 37.3831C89.9358 38.7078 89.9223 39.7565 89.9223 40.5292C89.3071 40.5162 88.8135 40.5097 88.4417 40.5097C88.0901 40.5097 87.5594 40.5162 86.8495 40.5292ZM91.8593 40.5292C91.8864 39.8929 91.9066 39.1753 91.9202 38.3766C92.1838 38.1234 92.3562 37.9481 92.4374 37.8506L97.3965 32.474H96.8691C95.9699 32.474 95.1806 32.4838 94.5011 32.5032C93.8217 32.5227 93.1574 32.5519 92.5084 32.5909C92.5557 31.9675 92.5793 31.3117 92.5793 30.6234C93.7558 30.6364 94.8578 30.6429 95.8854 30.6429C97.7447 30.6429 99.3233 30.6364 100.621 30.6234C100.594 30.8961 100.557 31.6526 100.51 32.8929L95.4493 38.2987L95.1045 38.6396C95.7806 38.6656 96.3485 38.6786 96.8083 38.6786C97.8021 38.6786 98.4867 38.6737 98.8619 38.664C99.2371 38.6542 99.6986 38.6364 100.246 38.6104C100.192 39.0974 100.145 39.737 100.104 40.5292C98.9143 40.5162 97.5689 40.5097 96.068 40.5097C94.4656 40.5097 93.0628 40.5162 91.8593 40.5292ZM103.187 32.7955C103.282 32.3279 103.341 32 103.365 31.8117C103.388 31.6234 103.431 31.3377 103.491 30.9545C104.411 30.7468 105.222 30.6006 105.925 30.5162C106.628 30.4318 107.308 30.3896 107.964 30.3896C108.707 30.3896 109.39 30.4724 110.012 30.638C110.634 30.8036 111.121 31.0682 111.473 31.4318C111.824 31.7955 112 32.3182 112 33C112 33.3701 111.946 34.3133 111.838 35.8295C111.73 37.3458 111.665 38.9123 111.645 40.5292C111.131 40.5162 110.658 40.5097 110.225 40.5097C109.813 40.5097 109.329 40.5162 108.775 40.5292C108.863 39.7435 108.934 38.8344 108.988 37.8019L109.12 35.3766C108.863 35.539 108.667 35.6526 108.532 35.7175C108.396 35.7825 108.244 35.8425 108.075 35.8977C107.906 35.9529 107.609 36.0373 107.183 36.151C106.757 36.2646 106.416 36.3636 106.159 36.4481C105.902 36.5325 105.67 36.6282 105.464 36.7354C105.258 36.8425 105.084 36.9627 104.942 37.0958C104.8 37.2289 104.697 37.3685 104.632 37.5146C104.568 37.6607 104.536 37.8182 104.536 37.987C104.536 38.2597 104.619 38.4951 104.784 38.6932C104.95 38.8912 105.158 39.0292 105.408 39.1071C105.658 39.1851 105.952 39.224 106.29 39.224C106.507 39.224 106.735 39.2078 106.975 39.1753C107.215 39.1429 107.538 39.0617 107.943 38.9318C107.801 39.3019 107.636 39.8539 107.447 40.5877C106.967 40.6656 106.585 40.7143 106.301 40.7338C106.017 40.7532 105.753 40.763 105.51 40.763C104.658 40.763 103.958 40.6526 103.41 40.4318C102.863 40.211 102.459 39.8604 102.198 39.3799C101.938 38.8993 101.808 38.4156 101.808 37.9286C101.808 37.6493 101.859 37.3734 101.96 37.1006C102.061 36.8279 102.21 36.5779 102.406 36.3506C102.602 36.1234 102.856 35.9042 103.167 35.6932C103.478 35.4821 103.927 35.2776 104.516 35.0795C105.104 34.8815 105.881 34.6818 106.848 34.4805C107.105 34.4286 107.372 34.3653 107.649 34.2906C107.927 34.2159 108.148 34.1429 108.314 34.0714C108.479 34 108.623 33.9075 108.745 33.7938C108.866 33.6802 108.956 33.5617 109.013 33.4383C109.071 33.3149 109.1 33.1883 109.1 33.0584C109.1 32.8052 109.013 32.5909 108.841 32.4156C108.669 32.2403 108.445 32.1185 108.172 32.0503C107.898 31.9821 107.595 31.9481 107.264 31.9481C106.034 31.9481 104.675 32.2305 103.187 32.7955Z" fill="white"/>
<defs>
<filter id="filter0_d" x="36" y="0.633286" width="119" height="60.3667" filterUnits="userSpaceOnUse" color-interpolation-filters="sRGB">
<feFlood flood-opacity="0" result="BackgroundImageFix"/>
<feColorMatrix in="SourceAlpha" type="matrix" values="0 0 0 0 0 0 0 0 0 0 0 0 0 0 0 0 0 0 127 0"/>
<feOffset dy="3"/>
<feGaussianBlur stdDeviation="2"/>
<feColorMatrix type="matrix" values="0 0 0 0 0 0 0 0 0 0 0 0 0 0 0 0 0 0 0.5 0"/>
<feBlend mode="normal" in2="BackgroundImageFix" result="effect1_dropShadow"/>
<feBlend mode="normal" in="SourceGraphic" in2="effect1_dropShadow" result="shape"/>
</filter>
<filter id="filter1_d" x="0" y="54" width="118" height="63" filterUnits="userSpaceOnUse" color-interpolation-filters="sRGB">
<feFlood flood-opacity="0" result="BackgroundImageFix"/>
<feColorMatrix in="SourceAlpha" type="matrix" values="0 0 0 0 0 0 0 0 0 0 0 0 0 0 0 0 0 0 127 0"/>
<feOffset dy="3"/>
<feGaussianBlur stdDeviation="2"/>
<feColorMatrix type="matrix" values="0 0 0 0 0 0 0 0 0 0 0 0 0 0 0 0 0 0 0.5 0"/>
<feBlend mode="normal" in2="BackgroundImageFix" result="effect1_dropShadow"/>
<feBlend mode="normal" in="SourceGraphic" in2="effect1_dropShadow" result="shape"/>
</filter>
<filter id="filter2_d" x="25.5317" y="53" width="128.949" height="48" filterUnits="userSpaceOnUse" color-interpolation-filters="sRGB">
<feFlood flood-opacity="0" result="BackgroundImageFix"/>
<feColorMatrix in="SourceAlpha" type="matrix" values="0 0 0 0 0 0 0 0 0 0 0 0 0 0 0 0 0 0 127 0"/>
<feOffset dy="3"/>
<feGaussianBlur stdDeviation="2"/>
<feColorMatrix type="matrix" values="0 0 0 0 0 0 0 0 0 0 0 0 0 0 0 0 0 0 0.5 0"/>
<feBlend mode="normal" in2="BackgroundImageFix" result="effect1_dropShadow"/>
<feBlend mode="normal" in="SourceGraphic" in2="effect1_dropShadow" result="shape"/>
</filter>
<filter id="filter3_d" x="0" y="12.0417" width="131.307" height="49.9583" filterUnits="userSpaceOnUse" color-interpolation-filters="sRGB">
<feFlood flood-opacity="0" result="BackgroundImageFix"/>
<feColorMatrix in="SourceAlpha" type="matrix" values="0 0 0 0 0 0 0 0 0 0 0 0 0 0 0 0 0 0 127 0"/>
<feOffset dy="3"/>
<feGaussianBlur stdDeviation="2"/>
<feColorMatrix type="matrix" values="0 0 0 0 0 0 0 0 0 0 0 0 0 0 0 0 0 0 0.5 0"/>
<feBlend mode="normal" in2="BackgroundImageFix" result="effect1_dropShadow"/>
<feBlend mode="normal" in="SourceGraphic" in2="effect1_dropShadow" result="shape"/>
</filter>
<linearGradient id="paint0_linear" x1="65.3928" y1="24.5896" x2="65.3928" y2="52.9968" gradientUnits="userSpaceOnUse">
<stop stop-color="white" stop-opacity="0.01"/>
<stop offset="1"/>
</linearGradient>
<linearGradient id="paint1_linear" x1="92.0296" y1="88.1452" x2="92.5802" y2="56.605" gradientUnits="userSpaceOnUse">
<stop stop-color="white" stop-opacity="0.01"/>
<stop offset="1"/>
</linearGradient>
</defs>
</svg>
